<svg width="133" height="65" viewBox="0 0 133 65" fill="none" xmlns="http://www.w3.org/2000/svg">
<g filter="url(#filter0_d_6_20)">
<path d="M7.18457 24.2939L7.18359 24.2812C7.08311 19.4733 7.12107 15.5329 7.40137 12.3408C7.66524 9.33583 8.13827 7.07854 8.85938 5.41699L9.00684 5.09277C9.64732 3.74888 10.4575 2.8486 11.4717 2.25977C12.3725 1.73675 13.5118 1.41427 14.9814 1.31738L15.6309 1.29004H115.454C119.214 1.17051 121.773 1.30895 123.521 1.8877C124.367 2.16765 124.981 2.53887 125.443 3.00293C125.847 3.4082 126.178 3.92891 126.435 4.62305L126.54 4.93066C126.714 5.48314 126.845 6.13322 126.932 6.89941L127.746 41.8418C127.255 44.432 126.724 45.6887 125.581 46.4609C124.402 47.2571 122.347 47.7018 118.342 47.7451C117.579 45.113 115.813 43.5763 113.927 42.7266C111.869 41.7995 109.67 41.6807 108.451 41.6807C107.15 41.6807 104.946 41.9821 103.041 43.0039C101.367 43.9017 99.8511 45.4142 99.5059 47.749H36.1025C35.7156 45.6882 34.2367 44.3333 32.6172 43.5215C30.7158 42.5685 28.4415 42.2451 26.8242 42.2451C25.2571 42.2451 23.263 42.4268 21.4355 43.3271C19.7706 44.1476 18.3095 45.5349 17.4287 47.7441C15.3147 47.7342 12.993 47.6773 11.0176 47.3584C9.88957 47.1763 8.9475 46.9206 8.25 46.583C7.67427 46.3044 7.35349 46.0123 7.18457 45.7393V39.7842L6.34473 39.4922C5.90647 39.3398 5.65432 39.2361 5.49707 39.1514C5.44111 39.1212 5.40929 39.0984 5.39258 39.0859C5.38411 39.061 5.37063 39.0113 5.35449 38.9248C5.3191 38.735 5.29366 38.4958 5.25293 38.1025C5.27314 37.7294 5.2881 37.4648 5.31836 37.2344C5.34976 36.9955 5.38873 36.8844 5.41797 36.8271C5.43396 36.7959 5.50914 36.6011 6.29102 36.3682L7.18457 36.1025V24.2939Z" stroke="#F5F5F5" stroke-width="2.5" shape-rendering="crispEdges"/>
</g>
<g filter="url(#filter1_d_6_20)">
<circle cx="27" cy="51" r="4" stroke="white" stroke-width="4" shape-rendering="crispEdges"/>
</g>
<g filter="url(#filter2_d_6_20)">
<circle cx="27" cy="51" r="1" fill="white"/>
</g>
<g filter="url(#filter3_d_6_20)">
<circle cx="109" cy="51" r="4" stroke="white" stroke-width="4" shape-rendering="crispEdges"/>
</g>
<g filter="url(#filter4_d_6_20)">
<circle cx="109" cy="51" r="1" fill="white"/>
</g>
<defs>
<filter id="filter0_d_6_20" x="0" y="0" width="133" height="57" filterUnits="userSpaceOnUse" color-interpolation-filters="sRGB">
<feFlood flood-opacity="0" result="BackgroundImageFix"/>
<feColorMatrix in="SourceAlpha" type="matrix" values="0 0 0 0 0 0 0 0 0 0 0 0 0 0 0 0 0 0 127 0" result="hardAlpha"/>
<feOffset dy="4"/>
<feGaussianBlur stdDeviation="2"/>
<feComposite in2="hardAlpha" operator="out"/>
<feColorMatrix type="matrix" values="0 0 0 0 0.117647 0 0 0 0 0.117647 0 0 0 0 0.117647 0 0 0 0.27 0"/>
<feBlend mode="normal" in2="BackgroundImageFix" result="effect1_dropShadow_6_20"/>
<feBlend mode="normal" in="SourceGraphic" in2="effect1_dropShadow_6_20" result="shape"/>
</filter>
<filter id="filter1_d_6_20" x="17" y="45" width="20" height="20" filterUnits="userSpaceOnUse" color-interpolation-filters="sRGB">
<feFlood flood-opacity="0" result="BackgroundImageFix"/>
<feColorMatrix in="SourceAlpha" type="matrix" values="0 0 0 0 0 0 0 0 0 0 0 0 0 0 0 0 0 0 127 0" result="hardAlpha"/>
<feOffset dy="4"/>
<feGaussianBlur stdDeviation="2"/>
<feComposite in2="hardAlpha" operator="out"/>
<feColorMatrix type="matrix" values="0 0 0 0 0.117647 0 0 0 0 0.117647 0 0 0 0 0.117647 0 0 0 0.21 0"/>
<feBlend mode="normal" in2="BackgroundImageFix" result="effect1_dropShadow_6_20"/>
<feBlend mode="normal" in="SourceGraphic" in2="effect1_dropShadow_6_20" result="shape"/>
</filter>
<filter id="filter2_d_6_20" x="22" y="50" width="10" height="10" filterUnits="userSpaceOnUse" color-interpolation-filters="sRGB">
<feFlood flood-opacity="0" result="BackgroundImageFix"/>
<feColorMatrix in="SourceAlpha" type="matrix" values="0 0 0 0 0 0 0 0 0 0 0 0 0 0 0 0 0 0 127 0" result="hardAlpha"/>
<feOffset dy="4"/>
<feGaussianBlur stdDeviation="2"/>
<feComposite in2="hardAlpha" operator="out"/>
<feColorMatrix type="matrix" values="0 0 0 0 0.117647 0 0 0 0 0.117647 0 0 0 0 0.117647 0 0 0 0.21 0"/>
<feBlend mode="normal" in2="BackgroundImageFix" result="effect1_dropShadow_6_20"/>
<feBlend mode="normal" in="SourceGraphic" in2="effect1_dropShadow_6_20" result="shape"/>
</filter>
<filter id="filter3_d_6_20" x="99" y="45" width="20" height="20" filterUnits="userSpaceOnUse" color-interpolation-filters="sRGB">
<feFlood flood-opacity="0" result="BackgroundImageFix"/>
<feColorMatrix in="SourceAlpha" type="matrix" values="0 0 0 0 0 0 0 0 0 0 0 0 0 0 0 0 0 0 127 0" result="hardAlpha"/>
<feOffset dy="4"/>
<feGaussianBlur stdDeviation="2"/>
<feComposite in2="hardAlpha" operator="out"/>
<feColorMatrix type="matrix" values="0 0 0 0 0.117647 0 0 0 0 0.117647 0 0 0 0 0.117647 0 0 0 0.21 0"/>
<feBlend mode="normal" in2="BackgroundImageFix" result="effect1_dropShadow_6_20"/>
<feBlend mode="normal" in="SourceGraphic" in2="effect1_dropShadow_6_20" result="shape"/>
</filter>
<filter id="filter4_d_6_20" x="104" y="50" width="10" height="10" filterUnits="userSpaceOnUse" color-interpolation-filters="sRGB">
<feFlood flood-opacity="0" result="BackgroundImageFix"/>
<feColorMatrix in="SourceAlpha" type="matrix" values="0 0 0 0 0 0 0 0 0 0 0 0 0 0 0 0 0 0 127 0" result="hardAlpha"/>
<feOffset dy="4"/>
<feGaussianBlur stdDeviation="2"/>
<feComposite in2="hardAlpha" operator="out"/>
<feColorMatrix type="matrix" values="0 0 0 0 0.117647 0 0 0 0 0.117647 0 0 0 0 0.117647 0 0 0 0.21 0"/>
<feBlend mode="normal" in2="BackgroundImageFix" result="effect1_dropShadow_6_20"/>
<feBlend mode="normal" in="SourceGraphic" in2="effect1_dropShadow_6_20" result="shape"/>
</filter>
</defs>
</svg>
