<svg width="153" height="75" viewBox="0 0 153 75" fill="none" xmlns="http://www.w3.org/2000/svg">
<g filter="url(#filter0_d_35_2)">
<path d="M106.019 55.6172H88.7754V51.1055C88.7756 50.9676 88.8875 50.8555 89.0254 50.8555H105.769C105.906 50.8555 106.018 50.9676 106.019 51.1055V55.6172ZM7.33301 41.7539C7.72642 41.8362 8.02067 42.1266 8.2666 42.6875C8.55625 43.3483 8.6355 44.1129 8.64746 44.4014C8.64705 44.3917 8.6433 44.5298 8.56641 44.791C8.49602 45.0301 8.38386 45.3032 8.23047 45.5576C7.96952 45.9903 7.65993 46.2617 7.30664 46.3691C6.49438 46.0669 6.05082 45.8164 5.77832 45.5488C5.53891 45.3136 5.34379 44.9773 5.25586 44.2598C5.30736 43.5786 5.50068 43.087 5.80371 42.7148C6.09704 42.3548 6.56749 42.0158 7.33301 41.7539ZM35.5693 27.002H16.2432C16.2432 26.9798 16.2431 26.9573 16.2432 26.9346C16.2463 26.1087 16.2626 24.9332 16.3145 23.542C16.4079 21.0361 16.617 17.8517 17.0703 14.751C19.0285 14.7518 20.8353 14.754 22.2178 14.7568C23.0331 14.7585 23.7012 14.7595 24.165 14.7607C24.3969 14.7614 24.5782 14.7623 24.7012 14.7627C24.7623 14.7629 24.8092 14.7626 24.8408 14.7627C24.8566 14.7627 24.869 14.7636 24.877 14.7637H24.8945L33.8174 14.7529C34.7845 14.7519 35.5691 15.5359 35.5693 16.5029V27.002ZM80.5312 46C80.5312 47.7949 79.0762 49.25 77.2812 49.25H63.2354C61.4404 49.25 59.9854 47.7949 59.9854 46V11.501C59.9854 9.7643 61.3475 8.34564 63.0625 8.25586L63.2295 8.25098L77.2764 8.22656C79.0731 8.22374 80.531 9.67983 80.5312 11.4766V46ZM93.5029 5.7207C91.1549 5.71928 89.2502 7.62267 89.25 9.9707V25.2539C89.25 27.5278 91.0357 29.3852 93.2812 29.499L93.5 29.5039L138.318 29.5029C140.665 29.5027 142.568 27.5998 142.568 25.2529V9.99805C142.568 7.72522 140.784 5.869 138.539 5.75391L138.32 5.74805L93.5029 5.7207ZM16.25 29.502H35.5693V40C35.5693 40.8994 34.8787 41.6752 33.96 41.8008L33.7725 41.8174C32.4906 41.8666 30.9529 41.9519 29.501 42.1025C28.2528 42.2321 26.9958 42.416 26.0098 42.6904L25.6045 42.8145C23.3703 43.5592 21.1701 44.8094 20.0674 45.4805L19.665 45.7295C19.5809 45.7825 19.4977 45.8302 19.415 45.873L19.168 45.9863L18.9785 46.0625C18.6441 46.196 18.1952 46.1361 17.7344 45.7559C17.3258 45.4186 17.0511 44.9339 16.9834 44.4678L16.9678 44.2695C16.9434 42.691 16.6841 40.6798 16.4814 39.3262L16.3086 38.2324C16.2702 38.002 16.25 37.7764 16.25 37.5537V29.502ZM8.4541 28.2393L8.45312 28.2266C8.22693 17.3636 9.12116 10.1058 10.9492 5.93066L11.1289 5.53613C11.9076 3.89609 12.7527 2.89903 13.8076 2.27246C14.8807 1.63524 16.3172 1.29406 18.4434 1.25L141.313 1.68359H141.318C142.866 1.68367 144.352 2.02718 145.887 3.43066L146.194 3.72559C147.707 5.24448 147.75 7.61495 147.75 8.62598V49.0684C147.75 52.4031 147.186 53.7061 145.922 54.4463C145.193 54.8729 144.11 55.1879 142.458 55.3799C141.062 55.5422 139.339 55.6078 137.206 55.6162C136.925 53.3834 135.889 51.5114 134.282 50.1533C132.405 48.5666 129.841 47.75 127 47.75C124.164 47.75 121.462 48.5636 119.438 50.1172C117.697 51.453 116.477 53.329 116.149 55.6172H108.519V51.1055C108.518 49.5869 107.287 48.3555 105.769 48.3555H89.0254C87.5067 48.3555 86.2756 49.5869 86.2754 51.1055V55.6172H42.6123C42.3019 53.349 41.1521 51.474 39.46 50.1299C37.4896 48.5649 34.8378 47.75 32 47.75C29.0778 47.75 26.361 48.8606 24.3672 50.5137C22.7333 51.8683 21.4954 53.6694 21.1162 55.624C18.5241 55.6542 15.4453 55.7525 12.8359 55.4775C11.3349 55.3193 10.1436 55.0488 9.36133 54.6533C8.62116 54.2791 8.4541 53.9197 8.4541 53.5479V48.6084C9.35058 48.2119 9.97602 47.5054 10.3721 46.8486C10.6488 46.3897 10.8415 45.916 10.9648 45.4971C11.0816 45.1003 11.1609 44.6683 11.1455 44.2979C11.1276 43.865 11.0236 42.7501 10.5566 41.6846C10.1983 40.867 9.54724 39.9307 8.4541 39.4873V28.2393ZM38.0693 16.5029C38.0691 14.2273 36.2807 12.37 34.0332 12.2588L33.8145 12.2529L24.8916 12.2637C24.8898 12.2637 24.8875 12.2637 24.8848 12.2637C24.8767 12.2636 24.8644 12.2627 24.8486 12.2627C24.817 12.2626 24.7702 12.2629 24.709 12.2627C24.5858 12.2623 24.404 12.2614 24.1719 12.2607C23.7076 12.2595 23.0395 12.2585 22.2236 12.2568C20.9235 12.2542 19.2478 12.2519 17.4238 12.251L17.5684 11.2236C17.8012 9.6169 19.1245 8.40968 20.7676 8.26562L21.0996 8.25098L46.501 8.25781C48.5717 8.25835 50.25 9.93712 50.25 12.0078V23.252C50.25 25.323 48.5711 27.002 46.5 27.002H38.0693V16.5029ZM52.75 12.0078C52.75 8.66453 50.1249 5.93384 46.8232 5.76562L46.502 5.75781L21.1006 5.75098C18.2199 5.75024 15.6926 7.73033 15.1416 10.5859L15.0938 10.8643C14.988 11.5937 14.8778 12.4078 14.7666 13.2949C14.1744 16.8612 13.9214 20.6083 13.8154 23.4492C13.7623 24.8728 13.7463 26.0761 13.7432 26.9248C13.7416 27.3493 13.743 27.686 13.7451 27.917C13.7462 28.0323 13.7481 28.1217 13.749 28.1826L13.75 28.252V37.5537C13.75 37.8322 13.7684 38.1063 13.8027 38.376L13.8418 38.6436C14.0094 39.6482 14.3874 42.0844 14.458 43.9443L14.4678 44.3076C14.4887 45.6591 15.1892 46.8966 16.1426 47.6836C17.0419 48.426 18.3279 48.8852 19.6436 48.4766L19.9072 48.3838L20.0967 48.3076C20.3402 48.2102 20.5698 48.097 20.7861 47.9727L20.998 47.8447C21.7884 47.3469 23.8588 46.1064 25.9727 45.334L26.3955 45.1855C27.1508 44.9339 28.3558 44.7355 29.7588 44.5898C30.792 44.4826 31.8821 44.4088 32.8916 44.3584L33.8691 44.3154C36.1699 44.227 38.0693 42.3542 38.0693 40V29.502H46.5C49.9518 29.502 52.75 26.7037 52.75 23.252V12.0078ZM83.0312 11.4766C83.031 8.39648 80.6094 5.88328 77.5674 5.73438L77.2715 5.72656L63.2256 5.75098C60.0538 5.75641 57.4854 8.32924 57.4854 11.501V46C57.4854 49.1756 60.0597 51.75 63.2354 51.75H77.2812C80.4569 51.75 83.0312 49.1756 83.0312 46V11.4766ZM91.75 9.9707C91.7502 9.06435 92.4395 8.31953 93.3223 8.23047L93.501 8.2207L138.319 8.24805C139.285 8.24885 140.068 9.03216 140.068 9.99805V25.2529C140.068 26.1587 139.379 26.9034 138.497 26.9932L138.318 27.0029L93.5 27.0039C92.5335 27.0039 91.75 26.2204 91.75 25.2539V9.9707Z" stroke="#F5F5F5" stroke-width="2.5" shape-rendering="crispEdges"/>
</g>
<g filter="url(#filter1_d_35_2)">
<circle cx="32.1995" cy="59.1995" r="5.4495" stroke="white" stroke-width="3.5" shape-rendering="crispEdges"/>
</g>
<g filter="url(#filter2_d_35_2)">
<circle cx="32.1995" cy="59.1995" r="1.19992" fill="white"/>
</g>
<g filter="url(#filter3_d_35_2)">
<circle cx="127.2" cy="59.1995" r="5.4495" stroke="white" stroke-width="3.5" shape-rendering="crispEdges"/>
</g>
<g filter="url(#filter4_d_35_2)">
<circle cx="127.199" cy="59.1995" r="1.19992" fill="white"/>
</g>
<path d="M63 25.5405V13C63 11.8954 63.8954 11 65 11H67C68.1046 11 69 11.8954 69 13V25.5405C69 26.6451 68.1046 27.5405 67 27.5405H65C63.8954 27.5405 63 26.6451 63 25.5405Z" stroke="white"/>
<path d="M72 26V13C72 11.8954 72.8954 11 74 11H76C77.1046 11 78 11.8954 78 13V26C78 27.1046 77.1046 28 76 28H74C72.8954 28 72 27.1046 72 26Z" stroke="white"/>
<path d="M72 45V34.4054C72 33.3008 72.8954 32.4054 74 32.4054H76C77.1046 32.4054 78 33.3008 78 34.4054V45C78 46.1046 77.1046 47 76 47H74C72.8954 47 72 46.1046 72 45Z" stroke="white"/>
<path d="M63 45V34.4054C63 33.3008 63.8954 32.4054 65 32.4054H67C68.1046 32.4054 69 33.3008 69 34.4054V45C69 46.1046 68.1046 47 67 47H65C63.8954 47 63 46.1046 63 45Z" stroke="white"/>
<defs>
<filter id="filter0_d_35_2" x="0" y="0" width="153" height="65" filterUnits="userSpaceOnUse" color-interpolation-filters="sRGB">
<feFlood flood-opacity="0" result="BackgroundImageFix"/>
<feColorMatrix in="SourceAlpha" type="matrix" values="0 0 0 0 0 0 0 0 0 0 0 0 0 0 0 0 0 0 127 0" result="hardAlpha"/>
<feOffset dy="4"/>
<feGaussianBlur stdDeviation="2"/>
<feComposite in2="hardAlpha" operator="out"/>
<feColorMatrix type="matrix" values="0 0 0 0 0.117647 0 0 0 0 0.117647 0 0 0 0 0.117647 0 0 0 0.27 0"/>
<feBlend mode="normal" in2="BackgroundImageFix" result="effect1_dropShadow_35_2"/>
<feBlend mode="normal" in="SourceGraphic" in2="effect1_dropShadow_35_2" result="shape"/>
</filter>
<filter id="filter1_d_35_2" x="21" y="52" width="22.399" height="22.399" filterUnits="userSpaceOnUse" color-interpolation-filters="sRGB">
<feFlood flood-opacity="0" result="BackgroundImageFix"/>
<feColorMatrix in="SourceAlpha" type="matrix" values="0 0 0 0 0 0 0 0 0 0 0 0 0 0 0 0 0 0 127 0" result="hardAlpha"/>
<feOffset dy="4"/>
<feGaussianBlur stdDeviation="2"/>
<feComposite in2="hardAlpha" operator="out"/>
<feColorMatrix type="matrix" values="0 0 0 0 0.117647 0 0 0 0 0.117647 0 0 0 0 0.117647 0 0 0 0.21 0"/>
<feBlend mode="normal" in2="BackgroundImageFix" result="effect1_dropShadow_35_2"/>
<feBlend mode="normal" in="SourceGraphic" in2="effect1_dropShadow_35_2" result="shape"/>
</filter>
<filter id="filter2_d_35_2" x="26.9996" y="57.9996" width="10.3998" height="10.3998" filterUnits="userSpaceOnUse" color-interpolation-filters="sRGB">
<feFlood flood-opacity="0" result="BackgroundImageFix"/>
<feColorMatrix in="SourceAlpha" type="matrix" values="0 0 0 0 0 0 0 0 0 0 0 0 0 0 0 0 0 0 127 0" result="hardAlpha"/>
<feOffset dy="4"/>
<feGaussianBlur stdDeviation="2"/>
<feComposite in2="hardAlpha" operator="out"/>
<feColorMatrix type="matrix" values="0 0 0 0 0.117647 0 0 0 0 0.117647 0 0 0 0 0.117647 0 0 0 0.21 0"/>
<feBlend mode="normal" in2="BackgroundImageFix" result="effect1_dropShadow_35_2"/>
<feBlend mode="normal" in="SourceGraphic" in2="effect1_dropShadow_35_2" result="shape"/>
</filter>
<filter id="filter3_d_35_2" x="116" y="52" width="22.399" height="22.399" filterUnits="userSpaceOnUse" color-interpolation-filters="sRGB">
<feFlood flood-opacity="0" result="BackgroundImageFix"/>
<feColorMatrix in="SourceAlpha" type="matrix" values="0 0 0 0 0 0 0 0 0 0 0 0 0 0 0 0 0 0 127 0" result="hardAlpha"/>
<feOffset dy="4"/>
<feGaussianBlur stdDeviation="2"/>
<feComposite in2="hardAlpha" operator="out"/>
<feColorMatrix type="matrix" values="0 0 0 0 0.117647 0 0 0 0 0.117647 0 0 0 0 0.117647 0 0 0 0.21 0"/>
<feBlend mode="normal" in2="BackgroundImageFix" result="effect1_dropShadow_35_2"/>
<feBlend mode="normal" in="SourceGraphic" in2="effect1_dropShadow_35_2" result="shape"/>
</filter>
<filter id="filter4_d_35_2" x="122" y="57.9996" width="10.3998" height="10.3998" filterUnits="userSpaceOnUse" color-interpolation-filters="sRGB">
<feFlood flood-opacity="0" result="BackgroundImageFix"/>
<feColorMatrix in="SourceAlpha" type="matrix" values="0 0 0 0 0 0 0 0 0 0 0 0 0 0 0 0 0 0 127 0" result="hardAlpha"/>
<feOffset dy="4"/>
<feGaussianBlur stdDeviation="2"/>
<feComposite in2="hardAlpha" operator="out"/>
<feColorMatrix type="matrix" values="0 0 0 0 0.117647 0 0 0 0 0.117647 0 0 0 0 0.117647 0 0 0 0.21 0"/>
<feBlend mode="normal" in2="BackgroundImageFix" result="effect1_dropShadow_35_2"/>
<feBlend mode="normal" in="SourceGraphic" in2="effect1_dropShadow_35_2" result="shape"/>
</filter>
</defs>
</svg>
